<svg width="60" height="23" viewBox="0 0 60 23" fill="none" xmlns="http://www.w3.org/2000/svg">
<path d="M12.8562 5.06V19H11.0362V12.68H3.93617V19H2.11617V5.06H3.93617V11.18H11.0362V5.06H12.8562Z" fill="#FF0000"/>
<path d="M21.8809 5.06V6.54H15.8209V11.24H20.7409V12.72H15.8209V19H14.0009V5.06H21.8809Z" fill="#FF0000"/>
<path d="M27.4312 15.162C26.5072 15.162 25.6672 14.952 24.9112 14.532C24.1672 14.112 23.5792 13.518 23.1472 12.75C22.7272 11.97 22.5172 11.07 22.5172 10.05C22.5172 9.042 22.7332 8.154 23.1652 7.386C23.6092 6.606 24.2092 6.012 24.9652 5.604C25.7212 5.184 26.5672 4.974 27.5032 4.974C28.4392 4.974 29.2852 5.184 30.0412 5.604C30.7972 6.012 31.3912 6.6 31.8232 7.368C32.2672 8.136 32.4892 9.03 32.4892 10.05C32.4892 11.07 32.2612 11.97 31.8052 12.75C31.3612 13.518 30.7552 14.112 29.9872 14.532C29.2192 14.952 28.3672 15.162 27.4312 15.162ZM27.4312 13.722C28.0192 13.722 28.5712 13.584 29.0872 13.308C29.6032 13.032 30.0172 12.618 30.3292 12.066C30.6532 11.514 30.8152 10.842 30.8152 10.05C30.8152 9.258 30.6592 8.586 30.3472 8.034C30.0352 7.482 29.6272 7.074 29.1232 6.81C28.6192 6.534 28.0732 6.396 27.4852 6.396C26.8852 6.396 26.3332 6.534 25.8292 6.81C25.3372 7.074 24.9412 7.482 24.6412 8.034C24.3412 8.586 24.1912 9.258 24.1912 10.05C24.1912 10.854 24.3352 11.532 24.6232 12.084C24.9232 12.636 25.3192 13.05 25.8112 13.326C26.3032 13.59 26.8432 13.722 27.4312 13.722Z" fill="#FF0000"/>
<circle cx="29" cy="10" r="1" fill="#FF0000"/>
<path d="M38.4312 15.162C37.5072 15.162 36.6672 14.952 35.9112 14.532C35.1672 14.112 34.5792 13.518 34.1472 12.75C33.7272 11.97 33.5172 11.07 33.5172 10.05C33.5172 9.042 33.7332 8.154 34.1652 7.386C34.6092 6.606 35.2092 6.012 35.9652 5.604C36.7212 5.184 37.5672 4.974 38.5032 4.974C39.4392 4.974 40.2852 5.184 41.0412 5.604C41.7972 6.012 42.3912 6.6 42.8232 7.368C43.2672 8.136 43.4892 9.03 43.4892 10.05C43.4892 11.07 43.2612 11.97 42.8052 12.75C42.3612 13.518 41.7552 14.112 40.9872 14.532C40.2192 14.952 39.3672 15.162 38.4312 15.162ZM38.4312 13.722C39.0192 13.722 39.5712 13.584 40.0872 13.308C40.6032 13.032 41.0172 12.618 41.3292 12.066C41.6532 11.514 41.8152 10.842 41.8152 10.05C41.8152 9.258 41.6592 8.586 41.3472 8.034C41.0352 7.482 40.6272 7.074 40.1232 6.81C39.6192 6.534 39.0732 6.396 38.4852 6.396C37.8852 6.396 37.3332 6.534 36.8292 6.81C36.3372 7.074 35.9412 7.482 35.6412 8.034C35.3412 8.586 35.1912 9.258 35.1912 10.05C35.1912 10.854 35.3352 11.532 35.6232 12.084C35.9232 12.636 36.3192 13.05 36.8112 13.326C37.3032 13.59 37.8432 13.722 38.4312 13.722Z" fill="#FF0000"/>
<circle cx="40" cy="10" r="1" fill="#FF0000"/>
<path d="M46.6022 13.48C46.6022 12.36 46.8289 11.38 47.2822 10.54C47.7355 9.68667 48.3555 9.02667 49.1422 8.56C49.9422 8.09333 50.8355 7.86 51.8222 7.86C52.6755 7.86 53.4689 8.06 54.2022 8.46C54.9355 8.84667 55.4955 9.36 55.8822 10V4.2H57.7222V19H55.8822V16.94C55.5222 17.5933 54.9889 18.1333 54.2822 18.56C53.5755 18.9733 52.7489 19.18 51.8022 19.18C50.8289 19.18 49.9422 18.94 49.1422 18.46C48.3555 17.98 47.7355 17.3067 47.2822 16.44C46.8289 15.5733 46.6022 14.5867 46.6022 13.48ZM55.8822 13.5C55.8822 12.6733 55.7155 11.9533 55.3822 11.34C55.0489 10.7267 54.5955 10.26 54.0222 9.94C53.4622 9.60667 52.8422 9.44 52.1622 9.44C51.4822 9.44 50.8622 9.6 50.3022 9.92C49.7422 10.24 49.2955 10.7067 48.9622 11.32C48.6289 11.9333 48.4622 12.6533 48.4622 13.48C48.4622 14.32 48.6289 15.0533 48.9622 15.68C49.2955 16.2933 49.7422 16.7667 50.3022 17.1C50.8622 17.42 51.4822 17.58 52.1622 17.58C52.8422 17.58 53.4622 17.42 54.0222 17.1C54.5955 16.7667 55.0489 16.2933 55.3822 15.68C55.7155 15.0533 55.8822 14.3267 55.8822 13.5Z" fill="#FF0000"/>
<path d="M22.28 15.419H22.46C23.8733 16.7923 25.52 17.8323 27.4 18.539C29.28 19.259 31.2533 19.619 33.32 19.619C35.44 19.619 37.48 19.239 39.44 18.479C41.4133 17.7323 43.1 16.6123 44.5 15.119H44.68V17.019C43.3867 18.419 41.74 19.4923 39.74 20.239C37.7533 20.999 35.6133 21.379 33.32 21.379C31.08 21.379 28.9933 21.019 27.06 20.299C25.1267 19.5923 23.5333 18.599 22.28 17.319V15.419Z" fill="#FF0000"/>
</svg>
